# xmcd
#
# Track frame offsets: 
#        150
#        18583
#        36101
#        59849
#        76547
#        95203
#        113092
#        135304
#        154489
#        175538
#        191942
#        213913
#        234332
#        252741
#        269397
#        285775
#
# Disc length: 4152 seconds
#
# Revision: 0
# Processed by: cddbd v1.4PL0 Copyright (c) Steve Scherf et al.
# Submitted via: ExactAudioCopy v0.95a3
#
DISCID=de103610
DTITLE=Sven Zetterberg - Moving In The Right Direction
DYEAR=2003
DGENRE=
TTITLE0=Moving In The Right Direction
TTITLE1=Song From A Worried Heart
TTITLE2=I'm In The Wrong
TTITLE3=Mile After Mile
TTITLE4=A World Outside
TTITLE5=I Passed The Limit
TTITLE6=Love Treated Me Unkind
TTITLE7=It Starts To Take Hold
TTITLE8=Heartaches Was All You Got
TTITLE9=My Way Around
TTITLE10=Since I Been Loving You
TTITLE11=Once In A Lifetime Woman
TTITLE12=Dead Ringer Blues
TTITLE13=You Don't Miss Your Water
TTITLE14=Flunked
TTITLE15=Reap What You Sow
EXTD=
EXTT0=
EXTT1=
EXTT2=
EXTT3=
EXTT4=
EXTT5=
EXTT6=
EXTT7=
EXTT8=
EXTT9=
EXTT10=
EXTT11=
EXTT12=
EXTT13=
EXTT14=
EXTT15=
PLAYORDER=
